<svg xmlns="http://www.w3.org/2000/svg" viewBox="0 0 149.03 75.82"><title>Ресурс 7</title><g id="Слой_2" data-name="Слой 2"><g id="Слой_1-2" data-name="Слой 1"><path d="M31.66,34c-5.24-1.45-10.76-3-16.24-2.37-4.61.5-9.29,2.28-12.31,5.93A13.05,13.05,0,0,0,.6,49.85c1.58,4.7,5.71,7,10.4,7.7a323.2,323.2,0,0,0,33.48,3q17,.83,34,.33t33.73-2.31q8.43-.91,16.83-2.14,4.33-.64,8.65-1.36a21.14,21.14,0,0,0,6.76-1.92,9.08,9.08,0,0,0,3.93-11.29c-1.66-4.52-5.51-7.26-10.08-8.44-5-1.29-10.38-1.21-15.49-1.5q-8.7-.5-17.4-.88Q70.77,29.5,36,29.67c-2.82,0-5.64,0-8.46.07-3.21,0-3.22,5,0,5q32.36-.36,64.7.77,16,.56,32.07,1.48c4.56.27,9.44.14,13.82,1.57,3.07,1,5.84,3.45,5.89,6.78.07,3.9-4.68,4.4-7.89,4.94q-7.71,1.29-15.46,2.28-15.67,2-31.48,2.87a433.59,433.59,0,0,1-62.94-1.18c-5-.45-10.06-.75-14.95-1.69-1.79-.35-3.74-.88-4.95-2.34A6.45,6.45,0,0,1,5,46.27c-.08-3.65,2.17-6.46,5.32-8.09,3.84-2,8.4-1.91,12.55-1.14,2.51.46,5,1.14,7.44,1.82,3.11.86,4.43-4,1.33-4.82Z"/><path d="M43.8,30.58c3.73-11.89,14-21.18,26-24.43,12.14-3.29,25,.61,34,9.23a36.37,36.37,0,0,1,10.35,17.73c.75,3.12,5.58,1.8,4.82-1.33C115.6,18,104.78,6.82,91.56,2.15,78-2.65,63.08.86,52.12,9.88A41.17,41.17,0,0,0,39,29.25c-1,3.07,3.86,4.39,4.82,1.33Z"/><path d="M45.53,60.74a45.43,45.43,0,0,0,25.3,14.32,45,45,0,0,0,28.85-4.25,44.44,44.44,0,0,0,13.11-10.15,2.56,2.56,0,0,0,0-3.54,2.54,2.54,0,0,0-3.54,0A41,41,0,0,1,86.38,70.18,39.44,39.44,0,0,1,61,66.45,40.75,40.75,0,0,1,49.06,57.2c-2.14-2.41-5.67,1.14-3.53,3.54Z"/><path d="M81.83,48.17a4.84,4.84,0,0,0-2.49-1.89,4.24,4.24,0,0,0-2.66,0,4.51,4.51,0,0,0-3.07,4.47,4.68,4.68,0,0,0,1.18,2.79,5.07,5.07,0,0,0,2,1.29,5.74,5.74,0,0,0,4.52-.35,10.26,10.26,0,0,0,3.38-3,2.69,2.69,0,0,0,.73-1.77,2.51,2.51,0,0,0-2.5-2.5A2.44,2.44,0,0,0,81.2,48a13.11,13.11,0,0,1-2,2l.51-.39a5.38,5.38,0,0,1-1.11.65l.6-.25a3.54,3.54,0,0,1-.79.21l.67-.09a3.62,3.62,0,0,1-.87,0l.66.09a3.84,3.84,0,0,1-.82-.23l.6.25a2.33,2.33,0,0,1-.57-.34l.5.39a2.19,2.19,0,0,1-.34-.34l.39.51a2.22,2.22,0,0,1-.25-.42l.25.6a2.21,2.21,0,0,1-.15-.5l.09.66a3.53,3.53,0,0,1,0-.46l-.09.66a2.52,2.52,0,0,1,.14-.54l-.25.6a2.6,2.6,0,0,1,.28-.49l-.39.51a2.13,2.13,0,0,1,.33-.34l-.51.39a3.26,3.26,0,0,1,.4-.24l-.6.25a2.54,2.54,0,0,1,.45-.13l-.66.09a2.62,2.62,0,0,1,.56,0L77.6,51a2.64,2.64,0,0,1,.55.15l-.6-.25a1.94,1.94,0,0,1,.48.28l-.5-.39a2.5,2.5,0,0,1,.32.33l-.39-.51.06.08A2.67,2.67,0,0,0,79,51.84a2.55,2.55,0,0,0,1.93-.25,2.58,2.58,0,0,0,1.15-1.5,2.44,2.44,0,0,0-.26-1.92Z"/><path d="M138.93,43.51a4.51,4.51,0,0,0-1.35-1.33,3.69,3.69,0,0,0-1.2-.48,4.87,4.87,0,0,0-2.62.16,6.1,6.1,0,0,0-.87.39,5.44,5.44,0,0,0-.76.58,1.25,1.25,0,0,0-.23.23,5,5,0,0,0-.57.77,4.24,4.24,0,0,0-.49,1.84A3,3,0,0,0,131,47a4.18,4.18,0,0,0,1,1.6,4.43,4.43,0,0,0,1,.78,4.84,4.84,0,0,0,1.22.45,6.14,6.14,0,0,0,1,.12,4.43,4.43,0,0,0,1-.1,2,2,0,0,0,.33-.08,3.88,3.88,0,0,0,.86-.38,3.78,3.78,0,0,0,1.87-3.18,3.37,3.37,0,0,0-.2-1.33A5,5,0,0,0,138,43.11a5.38,5.38,0,0,0-.78-.65,2.56,2.56,0,0,0-.35-.22,4.22,4.22,0,0,0-2-.51,3.42,3.42,0,0,0-1,.14,7,7,0,0,0-.75.31l-.2.11a2.64,2.64,0,0,0-1.14,1.5,1.89,1.89,0,0,0-.05,1,1.8,1.8,0,0,0,.3.92,2.5,2.5,0,0,0,3.42.9,1.71,1.71,0,0,1,.23-.13l-.6.26a1.58,1.58,0,0,1,.31-.09l-.66.09a2,2,0,0,1,.35,0l-.67-.09a2.17,2.17,0,0,1,.42.11l-.6-.25a1.79,1.79,0,0,1,.44.27l-.5-.39a2.16,2.16,0,0,1,.4.4l-.39-.51a2.51,2.51,0,0,1,.26.45l-.25-.59a1.93,1.93,0,0,1,.12.41l-.09-.66a2.16,2.16,0,0,1,0,.36l.09-.67a2,2,0,0,1-.09.35l.25-.6a2.75,2.75,0,0,1-.17.29l.39-.51a1.14,1.14,0,0,1-.25.24L135,45a1.69,1.69,0,0,1-.29.17l.6-.25a2,2,0,0,1-.42.11l.67-.09a2.26,2.26,0,0,1-.52,0l.66.09a2.67,2.67,0,0,1-.57-.16l.59.25a2.87,2.87,0,0,1-.48-.28l.5.39a2.73,2.73,0,0,1-.34-.34l.39.5a1.65,1.65,0,0,1-.18-.32l.25.6a1.36,1.36,0,0,1-.1-.36l.09.67a1.27,1.27,0,0,1,0-.39l-.09.66a1.61,1.61,0,0,1,.1-.36l-.25.6a1.29,1.29,0,0,1,.19-.32l-.4.5a1.76,1.76,0,0,1,.34-.33l-.5.39a2,2,0,0,1,.45-.26l-.6.25a2.72,2.72,0,0,1,.62-.17l-.67.09a2.72,2.72,0,0,1,.57,0l-.67-.09a2,2,0,0,1,.5.13l-.59-.25a2.5,2.5,0,0,1,.35.21l-.51-.39a1.88,1.88,0,0,1,.25.24l-.39-.5.06.09a2,2,0,0,0,.64.7,1.88,1.88,0,0,0,.85.44,1.9,1.9,0,0,0,1,0,1.86,1.86,0,0,0,.93-.3,2.53,2.53,0,0,0,1.15-1.49,2.5,2.5,0,0,0-.25-1.93Z"/><path d="M17.49,42.54a5.47,5.47,0,0,0,1.42,3.58,4.68,4.68,0,0,0,1.33,1.05,5.48,5.48,0,0,0,2.12.63A5,5,0,0,0,25.53,47a5.4,5.4,0,0,0,2.27-3,2.56,2.56,0,0,0-1.15-2.82,5.3,5.3,0,0,0-2.6-.75,5.9,5.9,0,0,0-2.67.61,5,5,0,0,0-1.71,1.24,5.22,5.22,0,0,0-1.28,2.38,2.7,2.7,0,0,0,.26,1.93,2.48,2.48,0,0,0,3.42.89,2.49,2.49,0,0,0,1.15-1.49,2.75,2.75,0,0,1,.14-.49l-.25.59a2.88,2.88,0,0,1,.39-.65l-.4.5a4,4,0,0,1,.55-.54l-.5.39a3.77,3.77,0,0,1,.78-.45l-.6.26a3.49,3.49,0,0,1,.88-.24l-.67.09a3.31,3.31,0,0,1,.77,0l-.67-.09a3.1,3.1,0,0,1,.68.18l-.6-.25a3,3,0,0,1,.4.21L23,42.61c0,.12-.08.24-.13.36l.25-.6a2.77,2.77,0,0,1-.34.57l.39-.5a3.27,3.27,0,0,1-.53.52l.51-.39a3.21,3.21,0,0,1-.65.37l.6-.25a3.58,3.58,0,0,1-.71.2L23,42.8a3.75,3.75,0,0,1-.67,0l.67.09a2.94,2.94,0,0,1-.66-.19L23,43a3.12,3.12,0,0,1-.59-.34l.51.39a3.45,3.45,0,0,1-.54-.54l.39.51a2.9,2.9,0,0,1-.38-.66l.25.6a2.94,2.94,0,0,1-.19-.66l.09.67c0-.13,0-.25,0-.38a2.61,2.61,0,0,0-.73-1.77A2.57,2.57,0,0,0,20,40a2.53,2.53,0,0,0-1.77.73,2.59,2.59,0,0,0-.73,1.77Z"/><path d="M30.74,36.65a174.52,174.52,0,0,0,67.74,5.61A178.82,178.82,0,0,0,117.56,39c3.13-.71,1.81-5.53-1.33-4.82A169.48,169.48,0,0,1,50.51,36a173.22,173.22,0,0,1-18.44-4.2c-3.1-.89-4.42,3.93-1.33,4.82Z"/></g></g></svg>